<?xml version="1.0" encoding="UTF-8"?>
<svg version="1.1" xmlns="http://www.w3.org/2000/svg" width="500" height="500">
<path d="M0 0 C0.14862427 7.15803488 -0.28702576 14.12469281 -1.05859375 21.23828125 C-1.1672023 22.28090622 -1.27581085 23.32353119 -1.38771057 24.39775085 C-1.73280518 27.70319637 -2.0847699 31.00786136 -2.4375 34.3125 C-2.89702735 38.66250042 -3.35363205 43.01280108 -3.80859375 47.36328125 C-3.97081924 48.90956711 -3.97081924 48.90956711 -4.13632202 50.48709106 C-4.88048368 57.65109176 -5.53192782 64.81193903 -6 72 C-7.32 71.67 -8.64 71.34 -10 71 C-10 70.34 -10 69.68 -10 69 C-10.53625 68.773125 -11.0725 68.54625 -11.625 68.3125 C-14.82460161 66.54429911 -17.29037223 64.46329797 -20 62 C-20 61.34 -20 60.68 -20 60 C-21.14926266 60.95421808 -22.29430541 61.91352045 -23.4375 62.875 C-24.39462891 63.67550781 -24.39462891 63.67550781 -25.37109375 64.4921875 C-27.10805004 65.9222757 -27.10805004 65.9222757 -28 68 C-28.66 68 -29.32 68 -30 68 C-30.23332031 68.55171875 -30.46664062 69.1034375 -30.70703125 69.671875 C-32.34019284 72.61255267 -34.39339207 74.79077251 -36.6875 77.25 C-40.25159629 81.10050259 -43.76100323 84.98583428 -47.19921875 88.94921875 C-50.14725281 92.30652435 -53.1666811 95.59945083 -56.1796875 98.8984375 C-58.03676667 100.86723421 -58.03676667 100.86723421 -59 103 C-59.66 103 -60.32 103 -61 103 C-61.23589844 103.55429688 -61.47179687 104.10859375 -61.71484375 104.6796875 C-63.3126455 107.56447242 -65.31851009 109.71172032 -67.5625 112.125 C-70.63719186 115.31507509 -70.63719186 115.31507509 -73 119 C-73.66 119 -74.32 119 -75 119 C-75 119.66 -75 120.32 -75 121 C-75.66 121 -76.32 121 -77 121 C-77.2371875 121.54140625 -77.474375 122.0828125 -77.71875 122.640625 C-79.34347757 125.63250137 -81.3501877 128.11159399 -83.5 130.75 C-84.2940625 131.73484375 -85.088125 132.7196875 -85.90625 133.734375 C-86.94265625 134.85585938 -86.94265625 134.85585938 -88 136 C-88.66 136 -89.32 136 -90 136 C-90 136.66 -90 137.32 -90 138 C-90.66 138 -91.32 138 -92 138 C-92.23589844 138.55558594 -92.47179687 139.11117187 -92.71484375 139.68359375 C-94.3127752 142.56375591 -96.305005 144.66369076 -98.5625 147.0625 C-104.23501788 153.19539615 -109.81771395 159.47459081 -114.62890625 166.31640625 C-115.08136719 166.87199219 -115.53382813 167.42757812 -116 168 C-116.66 168 -117.32 168 -118 168 C-118 168.66 -118 169.32 -118 170 C-118.66 170 -119.32 170 -120 170 C-120 170.66 -120 171.32 -120 172 C-120.66 172 -121.32 172 -122 172 C-122.2578125 172.56203125 -122.515625 173.1240625 -122.78125 173.703125 C-124.14169777 176.26704579 -125.72788962 178.45226365 -127.5 180.75 C-128.41265625 181.94882812 -128.41265625 181.94882812 -129.34375 183.171875 C-129.8903125 183.77515625 -130.436875 184.3784375 -131 185 C-131.66 185 -132.32 185 -133 185 C-133.268125 185.69480469 -133.53625 186.38960937 -133.8125 187.10546875 C-135.54934939 191.33903915 -137.57435602 195.43035285 -139.5625 199.55078125 C-142.53789612 206.69011487 -143.35221518 213.29100054 -143.625 220.9375 C-143.66367188 221.84467773 -143.70234375 222.75185547 -143.7421875 223.68652344 C-144.00642997 230.43650284 -144.07666567 237.17919298 -143.96337891 243.93334961 C-143.94140086 245.62213418 -143.96571412 247.31142047 -144 249 C-145 250 -145 250 -146.75270081 250.12025452 C-147.51437057 250.11803391 -148.27604034 250.11581329 -149.06079102 250.11352539 C-149.92160782 250.11344986 -150.78242462 250.11337433 -151.66932678 250.11329651 C-152.60473801 250.10813522 -153.54014923 250.10297394 -154.50390625 250.09765625 C-155.45692123 250.0962413 -156.40993622 250.09482635 -157.39183044 250.09336853 C-160.44875165 250.08775152 -163.50560077 250.07519616 -166.5625 250.0625 C-168.62955624 250.05748719 -170.69661362 250.05292391 -172.76367188 250.04882812 C-177.84247588 250.03777656 -182.9212257 250.02050055 -188 250 C-188.07520671 244.72048923 -188.1290908 239.44130292 -188.16479492 234.16137695 C-188.17970825 232.37225907 -188.20004617 230.58317659 -188.22631836 228.79418945 C-188.38877466 217.43180463 -187.83855717 207.03980121 -185 196 C-184.80639893 195.22825439 -184.61279785 194.45650879 -184.41333008 193.66137695 C-180.86337313 180.55577118 -174.37988664 169.31878994 -165.6640625 158.98828125 C-163.85401842 156.89872391 -163.85401842 156.89872391 -162 154 C-161.34 154 -160.68 154 -160 154 C-159.71125 153.401875 -159.4225 152.80375 -159.125 152.1875 C-158 150 -158 150 -156 147 C-155.34 147 -154.68 147 -154 147 C-154 146.34 -154 145.68 -154 145 C-153.34 145 -152.68 145 -152 145 C-152 144.34 -152 143.68 -152 143 C-151.34 143 -150.68 143 -150 143 C-149.7421875 142.42378906 -149.484375 141.84757813 -149.21875 141.25390625 C-147.8951324 138.80606215 -146.3699228 136.99362273 -144.5 134.9375 C-142.44184439 132.66567993 -140.70861829 130.56292743 -139 128 C-138.34 128 -137.68 128 -137 128 C-136.71125 127.401875 -136.4225 126.80375 -136.125 126.1875 C-135 124 -135 124 -133 121 C-132.34 121 -131.68 121 -131 121 C-130.773125 120.46375 -130.54625 119.9275 -130.3125 119.375 C-128.54429911 116.17539839 -126.46329797 113.70962777 -124 111 C-123.34 111 -122.68 111 -122 111 C-121.76539063 110.44570312 -121.53078125 109.89140625 -121.2890625 109.3203125 C-119.67545708 106.41582275 -117.65276205 104.29379995 -115.375 101.875 C-111.18184206 97.35975892 -107.32204254 92.71326506 -103.59375 87.80078125 C-103.0678125 87.20652344 -102.541875 86.61226563 -102 86 C-101.34 86 -100.68 86 -100 86 C-99.5968457 85.11356812 -99.5968457 85.11356812 -99.18554688 84.20922852 C-97.99705118 81.99450496 -96.76023243 80.46440923 -95.03125 78.65234375 C-94.46019531 78.04712891 -93.88914062 77.44191406 -93.30078125 76.81835938 C-92.70652344 76.19767578 -92.11226563 75.57699219 -91.5 74.9375 C-90.32101817 73.69841823 -89.14386127 72.45759686 -87.96875 71.21484375 C-87.44732422 70.66948975 -86.92589844 70.12413574 -86.38867188 69.56225586 C-84.79400866 67.84072536 -84.79400866 67.84072536 -83 65 C-82.34 65 -81.68 65 -81 65 C-80.690625 64.38125 -80.38125 63.7625 -80.0625 63.125 C-79.375 61.75 -78.6875 60.375 -78 59 C-77.34 59 -76.68 59 -76 59 C-76 58.34 -76 57.68 -76 57 C-75.34 57 -74.68 57 -74 57 C-73.7525 56.443125 -73.505 55.88625 -73.25 55.3125 C-71.77075182 52.57589087 -70.06532561 50.32349131 -68 48 C-67.34 48 -66.68 48 -66 48 C-65.76539063 47.44828125 -65.53078125 46.8965625 -65.2890625 46.328125 C-63.67151842 43.40674236 -61.63549805 41.20425503 -59.375 38.75 C-58.14910156 37.41195312 -58.14910156 37.41195312 -56.8984375 36.046875 C-56.27195312 35.37140625 -55.64546875 34.6959375 -55 34 C-58.51592168 30.26433322 -62.18906678 27.32725562 -66.42578125 24.4296875 C-66.94527344 23.95789063 -67.46476562 23.48609375 -68 23 C-68 22.01 -68 21.02 -68 20 C-61.85875956 17.62574074 -55.66437448 15.56715467 -49.3359375 13.75390625 C-42.89072532 11.88309822 -36.4861065 9.90763112 -30.09765625 7.8515625 C-28.86085869 7.45474525 -28.86085869 7.45474525 -27.59907532 7.0499115 C-24.21536456 5.96342233 -20.8322951 4.87514201 -17.45239258 3.77685547 C-14.94039551 2.9617838 -12.42560214 2.15591642 -9.91015625 1.3515625 C-8.75882957 0.97362045 -8.75882957 0.97362045 -7.58424377 0.58804321 C-2.22721997 -1.11360998 -2.22721997 -1.11360998 0 0 Z " fill="#5C389B" transform="translate(344,129)"/>
<path d="M0 0 C14.19 0 28.38 0 43 0 C44 1 44 1 44.11550903 3.39146423 C44.1088472 4.99774437 44.1088472 4.99774437 44.10205078 6.63647461 C44.09954315 7.86217667 44.09703552 9.08787872 44.0944519 10.35072327 C44.08655721 11.72209764 44.07850542 13.09347112 44.0703125 14.46484375 C44.0650217 15.89843093 44.06015916 17.33201975 44.05569458 18.76560974 C44.04546515 21.86904251 44.03244852 24.97245004 44.01818848 28.0758667 C43.99724014 33.05857497 43.99715817 38.04118207 43.99902344 43.02392578 C44.00052932 50.86763945 43.97245297 58.71080924 43.91970444 66.55434608 C43.89028665 71.05306035 43.8727946 75.55123174 43.87988281 80.05004883 C43.88647364 84.50288105 43.86409301 88.95470798 43.82144547 93.40733147 C43.81039095 95.07895259 43.80954422 96.75067658 43.81957626 98.42230415 C43.89578335 112.90838607 43.89578335 112.90838607 40.07470703 117.56616211 C37 120 37 120 35 120 C35 120.66 35 121.32 35 122 C34.34 122 33.68 122 33 122 C32.78601563 122.52335937 32.57203125 123.04671875 32.3515625 123.5859375 C30.45000119 126.98236781 27.93941293 129.71152119 25.375 132.625 C24.28178502 133.89126526 23.18933847 135.15819432 22.09765625 136.42578125 C20.32540392 138.47597082 18.54369978 140.51482052 16.74609375 142.54296875 C10.46014813 149.92101806 6.31853409 158.38292504 2 167 C1.34 167 0.68 167 0 167 C0 111.89 0 56.78 0 0 Z " fill="#803098" transform="translate(156,143)"/>
<path d="M0 0 C0.99 0 1.98 0 3 0 C3 0.66 3 1.32 3 2 C3.87398438 2.35578125 3.87398438 2.35578125 4.765625 2.71875 C7.47552837 4.2726806 8.86530802 6.01929431 10.75 8.5 C11.36359375 9.2940625 11.9771875 10.088125 12.609375 10.90625 C14 13 14 13 14 15 C14.66 15 15.32 15 16 15 C16 15.66 16 16.32 16 17 C16.66 17 17.32 17 18 17 C19.24814331 18.40678023 20.4230839 19.87879704 21.5625 21.375 C25.19076287 26.03612602 29.02089973 30.42802201 33.01953125 34.7734375 C38 40.37278107 38 40.37278107 38 43 C38.66 43 39.32 43 40 43 C41.5078125 44.4609375 41.5078125 44.4609375 43.125 46.375 C43.66382813 47.00148438 44.20265625 47.62796875 44.7578125 48.2734375 C46 50 46 50 46 52 C46.66 52 47.32 52 48 52 C49.7265625 53.8984375 49.7265625 53.8984375 51.625 56.375 C52.25664062 57.18710937 52.88828125 57.99921875 53.5390625 58.8359375 C55 61 55 61 55 63 C55.66 63 56.32 63 57 63 C61 67.47058824 61 67.47058824 61 70 C61.66 70 62.32 70 63 70 C64.45659977 71.61382948 65.84048951 73.29363216 67.1875 75 C70.59707271 79.27575866 74.08991176 83.41099219 77.78515625 87.44140625 C79 89 79 89 79 91 C79.66 91 80.32 91 81 91 C82.9453125 93.1171875 82.9453125 93.1171875 85.125 95.875 C86.21167969 97.23238281 86.21167969 97.23238281 87.3203125 98.6171875 C89 101 89 101 89 103 C81.24051046 103.10133362 73.48119124 103.17143783 65.72119141 103.21972656 C63.08082706 103.23985475 60.44050735 103.26715987 57.80029297 103.30175781 C54.00737499 103.3502205 50.21504584 103.3729572 46.421875 103.390625 C44.64825592 103.42159271 44.64825592 103.42159271 42.83880615 103.45318604 C41.1875473 103.45363922 41.1875473 103.45363922 39.50292969 103.45410156 C38.53474304 103.46298401 37.5665564 103.47186646 36.56903076 103.48101807 C33.26172553 102.86176757 32.0581061 101.6056095 30 99 C30 98.34 30 97.68 30 97 C29.34 97 28.68 97 28 97 C26.2734375 95.1015625 26.2734375 95.1015625 24.375 92.625 C23.74335938 91.81289063 23.11171875 91.00078125 22.4609375 90.1640625 C21 88 21 88 21 86 C20.34 86 19.68 86 19 86 C15 81.52941176 15 81.52941176 15 79 C14.34 79 13.68 79 13 79 C10 75.53846154 10 75.53846154 10 73 C9.34 73 8.68 73 8 73 C6.43567213 71.30725716 4.94671428 69.54430148 3.5 67.75 C2.30890625 66.28820312 2.30890625 66.28820312 1.09375 64.796875 C-0.58748034 62.55105238 -1.88135899 60.5534197 -3 58 C-3.66 58 -4.32 58 -5 58 C-6.33264423 56.51143934 -7.59219479 54.95696355 -8.8125 53.375 C-11.15514716 50.3624155 -13.49818331 47.38174874 -16 44.5 C-18 42 -18 42 -18 40 C-18.66 40 -19.32 40 -20 40 C-20 39.34 -20 38.68 -20 38 C-20.66 38 -21.32 38 -22 38 C-24.25 35.3125 -24.25 35.3125 -26 32 C-25.25 29.125 -25.25 29.125 -24 27 C-23.34 27 -22.68 27 -22 27 C-21.65001953 26.17242187 -21.65001953 26.17242187 -21.29296875 25.328125 C-19.65980716 22.38744733 -17.60660793 20.20922749 -15.3125 17.75 C-14.42046875 16.78449219 -13.5284375 15.81898438 -12.609375 14.82421875 C-11.74828125 13.89222656 -10.8871875 12.96023438 -10 12 C-8.68075642 10.52684466 -7.36727084 9.04848901 -6.0625 7.5625 C-5.53785156 6.96566406 -5.01320312 6.36882812 -4.47265625 5.75390625 C-2.9262901 3.9735899 -2.9262901 3.9735899 -1.49609375 1.77734375 C-1.00238281 1.19082031 -0.50867188 0.60429687 0 0 Z " fill="#2A58A8" transform="translate(253,276)"/>
<path d="M0 0 C-1 2 -1 2 -2.890625 2.8515625 C-10.71069182 5.41509434 -10.71069182 5.41509434 -15 5 C-15 5.99 -15 6.98 -15 8 C-16.27514492 10.55028983 -17.40341297 10.93081711 -20 12 C-20.99 12 -21.98 12 -23 12 C-23 12.66 -23 13.32 -23 14 C-22.01 14.33 -21.02 14.66 -20 15 C-20 15.66 -20 16.32 -20 17 C-19.505 17.495 -19.01 17.99 -18.5 18.5 C-18.005 18.995 -17.51 19.49 -17 20 C-17 20.66 -17 21.32 -17 22 C-16.34 22.33 -15.68 22.66 -15 23 C-15.680625 23.66 -16.36125 24.32 -17.0625 25 C-20.04323183 27.93839188 -22.64049525 31.16052639 -25.25390625 34.42578125 C-27 36 -27 36 -31 36 C-31.99 36.495 -31.99 36.495 -33 37 C-31.42219077 33.28954753 -29.09296752 30.70093616 -26.375 27.75 C-25.14910156 26.41195312 -25.14910156 26.41195312 -23.8984375 25.046875 C-23.27195312 24.37140625 -22.64546875 23.6959375 -22 23 C-25.51592168 19.26433322 -29.18906678 16.32725562 -33.42578125 13.4296875 C-33.94527344 12.95789063 -34.46476562 12.48609375 -35 12 C-35 11.01 -35 10.02 -35 9 C-26.99455729 5.90502323 -18.86518381 3.42362885 -10.625 1.05078125 C-3.38061041 -1.04915496 -3.38061041 -1.04915496 0 0 Z " fill="#AB2592" transform="translate(311,140)"/>
<path d="M0 0 C0.33 0 0.66 0 1 0 C1.81400419 20.64063345 2.21883866 41.28445437 2.5625 61.9375 C2.5791527 62.93802525 2.5791527 62.93802525 2.59614182 63.95876312 C2.73470333 72.30577975 2.86920151 80.65285826 3 89 C3.66 89.33 4.32 89.66 5 90 C5.495 89.01 5.495 89.01 6 88 C6.99 88 7.98 88 9 88 C9.33 88.99 9.66 89.98 10 91 C9.01 91 8.02 91 7 91 C7.22558594 91.86882812 7.45117188 92.73765625 7.68359375 93.6328125 C8.07013914 97.74641896 7.15792897 99.36836376 5.0625 102.875 C4.49660156 103.84179688 3.93070313 104.80859375 3.34765625 105.8046875 C2.68056641 106.89136719 2.68056641 106.89136719 2 108 C1.34 108 0.68 108 0 108 C0 72.36 0 36.72 0 0 Z " fill="#56347B" transform="translate(157,200)"/>
<path d="M0 0 C0.66 0 1.32 0 2 0 C3.45659977 1.61382948 4.84048951 3.29363216 6.1875 5 C9.59707271 9.27575866 13.08991176 13.41099219 16.78515625 17.44140625 C18 19 18 19 18 21 C18.66 21 19.32 21 20 21 C21.9453125 23.1171875 21.9453125 23.1171875 24.125 25.875 C24.84945312 26.77992188 25.57390625 27.68484375 26.3203125 28.6171875 C28 31 28 31 28 33 C20.24051046 33.10133362 12.48119124 33.17143783 4.72119141 33.21972656 C2.08082706 33.23985475 -0.55949265 33.26715987 -3.19970703 33.30175781 C-6.99262501 33.3502205 -10.78495416 33.3729572 -14.578125 33.390625 C-16.35174408 33.42159271 -16.35174408 33.42159271 -18.16119385 33.45318604 C-19.8124527 33.45363922 -19.8124527 33.45363922 -21.49707031 33.45410156 C-22.46525696 33.46298401 -23.4334436 33.47186646 -24.43096924 33.48101807 C-27.73827447 32.86176757 -28.9418939 31.6056095 -31 29 C-31 28.34 -31 27.68 -31 27 C-31.66 27 -32.32 27 -33 27 C-34.625 25 -34.625 25 -36 23 C-35.67 22.34 -35.34 21.68 -35 21 C-34.34 21.66 -33.68 22.32 -33 23 C-31.65737935 22.70630173 -30.32303717 22.3721042 -29 22 C-28.34 22.33 -27.68 22.66 -27 23 C-27.33 23.99 -27.66 24.98 -28 26 C-27.34 27.65 -26.68 29.3 -26 31 C-9.17 31 7.66 31 25 31 C22.36 29.02 19.72 27.04 17 25 C16.34 23.68 15.68 22.36 15 21 C13.68 21.33 12.36 21.66 11 22 C10.40267181 19.23735711 10 16.83967231 10 14 C9.34 13.67 8.68 13.34 8 13 C8 12.34 8 11.68 8 11 C7.01 10.67 6.02 10.34 5 10 C5 9.34 5 8.68 5 8 C4.34 8 3.68 8 3 8 C0.95830515 5.09451118 0 3.59857954 0 0 Z " fill="#7DAECA" transform="translate(314,346)"/>
<path d="M0 0 C0.33 0 0.66 0 1 0 C0.67 14.19 0.34 28.38 0 43 C1.30661495 41.91891551 1.30661495 41.91891551 1.11352539 39.31616211 C1.10828857 38.14835205 1.10305176 36.98054199 1.09765625 35.77734375 C1.09443359 34.51728516 1.09121094 33.25722656 1.08789062 31.95898438 C1.07953403 30.61848891 1.07106907 29.27799412 1.0625 27.9375 C1.0574866 26.59310058 1.05292342 25.2486994 1.04882812 23.90429688 C1.03699488 20.60282059 1.02050971 17.30143197 1 14 C3.26598448 17.39897673 3.23742654 18.56319173 3.1953125 22.54296875 C3.19031738 23.51000732 3.18532227 24.4770459 3.18017578 25.47338867 C3.16196777 26.69904541 3.14375977 27.92470215 3.125 29.1875 C3.08375 33.085625 3.0425 36.98375 3 41 C13.56 41 24.12 41 35 41 C35 40.34 35 39.68 35 39 C35.99 38.67 36.98 38.34 38 38 C38 38.99 38 39.98 38 41 C38.99 41.495 38.99 41.495 40 42 C40.33 42.33 40.66 42.66 41 43 C40.99476318 42.26998779 40.98952637 41.53997559 40.98413086 40.7878418 C40.96310683 37.42107026 40.95025998 34.05431261 40.9375 30.6875 C40.92912109 29.53958984 40.92074219 28.39167969 40.91210938 27.20898438 C40.89191023 20.07868651 41.20281881 13.08655428 42 6 C42.33 6 42.66 6 43 6 C43.02464928 11.25105442 43.04283568 16.50207545 43.05493164 21.75317383 C43.05997218 23.54094021 43.06680454 25.32870245 43.07543945 27.11645508 C43.0875173 29.68051168 43.09323094 32.24451397 43.09765625 34.80859375 C43.10281754 35.6127623 43.10797882 36.41693085 43.11329651 37.24546814 C43.11349215 39.16401715 43.06201983 41.08245368 43 43 C42 44 42 44 40.24729919 44.12025452 C39.48562943 44.11803391 38.72395966 44.11581329 37.93920898 44.11352539 C37.07839218 44.11344986 36.21757538 44.11337433 35.33067322 44.11329651 C34.39526199 44.10813522 33.45985077 44.10297394 32.49609375 44.09765625 C31.54307877 44.0962413 30.59006378 44.09482635 29.60816956 44.09336853 C26.55124835 44.08775152 23.49439923 44.07519616 20.4375 44.0625 C18.37044376 44.05748719 16.30338638 44.05292391 14.23632812 44.04882812 C9.15752412 44.03777656 4.0787743 44.02050055 -1 44 C-1.02476266 38.53735686 -1.04288974 33.07474657 -1.05493164 27.61206055 C-1.05995303 25.75463288 -1.06677141 23.89720915 -1.07543945 22.03979492 C-1.08760117 19.36636379 -1.09325033 16.69298504 -1.09765625 14.01953125 C-1.10281754 13.19226028 -1.10797882 12.36498932 -1.11329651 11.51264954 C-1.1136812 7.5377466 -0.98980119 3.88043167 0 0 Z " fill="#8AB6D4" transform="translate(157,335)"/>
<path d="M0 0 C0.15823963 7.31004281 -0.3148683 14.42983802 -1.09375 21.6953125 C-1.20473022 22.76876923 -1.31571045 23.84222595 -1.43005371 24.94821167 C-1.78191924 28.34099306 -2.14083968 31.73298389 -2.5 35.125 C-2.74135408 37.44005535 -2.98224403 39.75515915 -3.22265625 42.0703125 C-3.80974064 47.71411265 -4.40260248 53.35728268 -5 59 C-5.33 59 -5.66 59 -6 59 C-5.8598002 55.64557336 -5.71181572 52.29153225 -5.5625 48.9375 C-5.52318359 47.99455078 -5.48386719 47.05160156 -5.44335938 46.08007812 C-5.26808469 42.21055231 -5.06294507 38.42881326 -4.5 34.59375 C-3.75893453 29.26734192 -3.63192031 23.93296268 -3.4375 18.5625 C-3.39431641 17.44939453 -3.35113281 16.33628906 -3.30664062 15.18945312 C-3.20120112 12.45974156 -3.09907971 9.72994857 -3 7 C-4.65 7 -6.3 7 -8 7 C-8.33 6.34 -8.66 5.68 -9 5 C-10.45903258 5.30921884 -11.91720722 5.62248799 -13.375 5.9375 C-14.18710937 6.11152344 -14.99921875 6.28554687 -15.8359375 6.46484375 C-18.029463 6.92330693 -18.029463 6.92330693 -20 8 C-20.66 7.67 -21.32 7.34 -22 7 C-22 7.66 -22 8.32 -22 9 C-23.32 8.67 -24.64 8.34 -26 8 C-26 8.99 -26 9.98 -26 11 C-27.98 11 -29.96 11 -32 11 C-32.33 10.34 -32.66 9.68 -33 9 C-28.62481268 7.5480573 -24.24659017 6.10582895 -19.86523438 4.67260742 C-18.37444466 4.18342174 -16.88452778 3.69156787 -15.39550781 3.19702148 C-13.25808637 2.48763095 -11.11773481 1.78781816 -8.9765625 1.08984375 C-8.30879791 0.86594467 -7.64103333 0.64204559 -6.95303345 0.41136169 C-2.22774341 -1.11387171 -2.22774341 -1.11387171 0 0 Z " fill="#D48EC7" transform="translate(344,129)"/>
<path d="M0 0 C0.66 0 1.32 0 2 0 C0.6215428 5.97331455 -1.01710711 10.27031469 -5 15 C-5.70885894 16.31138904 -6.39456452 17.63777017 -7 19 C-7.99 18.67 -8.98 18.34 -10 18 C-10 17.34 -10 16.68 -10 16 C-13.91603304 18.79420492 -13.91603304 18.79420492 -16 23 C-16.66 23 -17.32 23 -18 23 C-18.0928125 23.8353125 -18.0928125 23.8353125 -18.1875 24.6875 C-19.52117079 28.48333226 -22.42340827 31.21170413 -26 33 C-26.45375 33.78375 -26.9075 34.5675 -27.375 35.375 C-29.00850157 38.01373331 -30.43296314 39.31814826 -33 41 C-33.66 40.67 -34.32 40.34 -35 40 C-34.43285278 39.3498291 -34.43285278 39.3498291 -33.85424805 38.68652344 C-32.13057872 36.70891479 -30.4090231 34.72947715 -28.6875 32.75 C-28.09259766 32.06808594 -27.49769531 31.38617188 -26.88476562 30.68359375 C-26.30791016 30.01972656 -25.73105469 29.35585937 -25.13671875 28.671875 C-24.34334106 27.76066895 -24.34334106 27.76066895 -23.53393555 26.83105469 C-21.93740686 24.97697519 -21.93740686 24.97697519 -20.42895508 22.77050781 C-19.9573999 22.18624023 -19.48584473 21.60197266 -19 21 C-18.34 21 -17.68 21 -17 21 C-16.73123047 20.40904541 -16.46246094 19.81809082 -16.18554688 19.20922852 C-14.99705118 16.99450496 -13.76023243 15.46440923 -12.03125 13.65234375 C-11.46019531 13.04712891 -10.88914063 12.44191406 -10.30078125 11.81835938 C-9.40939453 10.88733398 -9.40939453 10.88733398 -8.5 9.9375 C-7.32101817 8.69841823 -6.14386127 7.45759686 -4.96875 6.21484375 C-4.44732422 5.66948975 -3.92589844 5.12413574 -3.38867188 4.56225586 C-1.79400866 2.84072536 -1.79400866 2.84072536 0 0 Z " fill="#7B2C8C" transform="translate(261,194)"/>
<path d="M0 0 C0.33 0 0.66 0 1 0 C1.20315575 11.24128469 1.05645908 22.25456499 -0.21386719 33.43164062 C-1.2739029 42.93046601 -1.63576289 52.45315373 -2 62 C-3.32 61.67 -4.64 61.34 -6 61 C-6 60.34 -6 59.68 -6 59 C-6.5775 58.773125 -7.155 58.54625 -7.75 58.3125 C-10.5663661 56.66961977 -12.08077114 54.60466773 -14 52 C-13.1028125 52.5259375 -13.1028125 52.5259375 -12.1875 53.0625 C-9.89186786 54.33304698 -9.89186786 54.33304698 -7 53 C-6.01 52.505 -6.01 52.505 -5 52 C-3.91286215 46.0811384 -3.73129484 40.05570682 -3.37255859 34.05615234 C-2.68917776 22.64976103 -1.36932421 11.34013153 0 0 Z " fill="#89368B" transform="translate(340,139)"/>
<path d="M0 0 C0.5775 0.226875 1.155 0.45375 1.75 0.6875 C0.76 0.6875 -0.23 0.6875 -1.25 0.6875 C-1.25 1.3475 -1.25 2.0075 -1.25 2.6875 C-0.26 3.0175 0.73 3.3475 1.75 3.6875 C1.75 4.3475 1.75 5.0075 1.75 5.6875 C2.245 6.1825 2.74 6.6775 3.25 7.1875 C3.745 7.6825 4.24 8.1775 4.75 8.6875 C4.75 9.3475 4.75 10.0075 4.75 10.6875 C5.41 11.0175 6.07 11.3475 6.75 11.6875 C6.069375 12.3475 5.38875 13.0075 4.6875 13.6875 C1.70676817 16.62589188 -0.89049525 19.84802639 -3.50390625 23.11328125 C-5.25 24.6875 -5.25 24.6875 -9.25 24.6875 C-9.91 25.0175 -10.57 25.3475 -11.25 25.6875 C-9.67219077 21.97704753 -7.34296752 19.38843616 -4.625 16.4375 C-3.80773437 15.54546875 -2.99046875 14.6534375 -2.1484375 13.734375 C-1.52195312 13.05890625 -0.89546875 12.3834375 -0.25 11.6875 C-0.745 10.924375 -1.24 10.16125 -1.75 9.375 C-3.25 6.6875 -3.25 6.6875 -3.25 3.6875 C-4.24 3.3575 -5.23 3.0275 -6.25 2.6875 C-2.80384615 -0.38942308 -2.80384615 -0.38942308 0 0 Z " fill="#98248B" transform="translate(289.25,151.3125)"/>
<path d="M0 0 C0.66 0.66 1.32 1.32 2 2 C1.50628906 2.40992188 1.01257813 2.81984375 0.50390625 3.2421875 C-0.45708984 4.05042969 -0.45708984 4.05042969 -1.4375 4.875 C-2.07558594 5.40867188 -2.71367187 5.94234375 -3.37109375 6.4921875 C-5.10805004 7.9222757 -5.10805004 7.9222757 -6 10 C-6.66 10 -7.32 10 -8 10 C-8.23332031 10.55171875 -8.46664063 11.1034375 -8.70703125 11.671875 C-10.34019284 14.61255267 -12.39339207 16.79077251 -14.6875 19.25 C-18.3891871 23.24589633 -22.00908023 27.28345845 -25.52734375 31.44140625 C-27 33 -27 33 -30 35 C-30.36625971 30.48279689 -30.36625971 30.48279689 -28.625 28.1875 C-27 27 -27 27 -25 27 C-24.67 25.35 -24.34 23.7 -24 22 C-22.02 21.34 -20.04 20.68 -18 20 C-18 19.01 -18 18.02 -18 17 C-17.34 16.67 -16.68 16.34 -16 16 C-15.34786708 13.97536745 -15.34786708 13.97536745 -15 12 C-13.68 12 -12.36 12 -11 12 C-11 11.01 -11 10.02 -11 9 C-10.67 8.01 -10.34 7.02 -10 6 C-9.01 5.67 -8.02 5.34 -7 5 C-6.67 4.34 -6.34 3.68 -6 3 C-4.34795544 2.29788106 -2.68076231 1.63028587 -1 1 C-0.67 0.67 -0.34 0.34 0 0 Z " fill="#9E72AE" transform="translate(322,187)"/>
<path d="M0 0 C0 3.51716303 -0.82445585 4.37121748 -3 7 C-2.01 7 -1.02 7 0 7 C-0.474375 7.4125 -0.94875 7.825 -1.4375 8.25 C-3.15290139 9.87962522 -3.15290139 9.87962522 -3.4375 12.0625 C-3.7159375 13.0215625 -3.7159375 13.0215625 -4 14 C-5.33333333 14.66666667 -6.66666667 15.33333333 -8 16 C-9.75322937 18.53188648 -9.75322937 18.53188648 -11 21 C-10.0409375 22.0828125 -10.0409375 22.0828125 -9.0625 23.1875 C-7.01326465 25.98191184 -6.38667054 27.61663274 -6 31 C-6.66 30.67 -7.32 30.34 -8 30 C-8 29.34 -8 28.68 -8 28 C-8.66 28 -9.32 28 -10 28 C-10 27.34 -10 26.68 -10 26 C-10.66 26 -11.32 26 -12 26 C-14.25 23.3125 -14.25 23.3125 -16 20 C-15.25 17.125 -15.25 17.125 -14 15 C-13.34 15 -12.68 15 -12 15 C-11.77570313 14.45859375 -11.55140625 13.9171875 -11.3203125 13.359375 C-9.58851134 10.26467706 -7.28380732 7.82074395 -4.875 5.25 C-4.40707031 4.74339844 -3.93914062 4.23679687 -3.45703125 3.71484375 C-2.30873459 2.47280859 -1.15491328 1.23588506 0 0 Z " fill="#7375B1" transform="translate(243,288)"/>
<path d="M0 0 C0 2.31 0 4.62 0 7 C-1.32 7 -2.64 7 -4 7 C-4 7.99 -4 8.98 -4 10 C-5.32 10 -6.64 10 -8 10 C-8 10.66 -8 11.32 -8 12 C-10.95481492 14.74375671 -11.77471908 15 -16 15 C-15.67 13.35 -15.34 11.7 -15 10 C-14.34 10 -13.68 10 -13 10 C-12.73960937 9.40703125 -12.47921875 8.8140625 -12.2109375 8.203125 C-10.92281963 5.85958151 -9.63961504 4.49189423 -7.625 2.75 C-7.03976563 2.22921875 -6.45453125 1.7084375 -5.8515625 1.171875 C-4 0 -4 0 0 0 Z " fill="#534297" transform="translate(207,262)"/>
<path d="M0 0 C1.32 0.66 2.64 1.32 4 2 C4.66 1.67 5.32 1.34 6 1 C9.36949443 2.68474722 10.87944386 3.8191658 13 7 C6.48707753 7.12524851 6.48707753 7.12524851 3.8125 6.4375 C1.53203887 5.88704386 0.18770448 6.19784169 -2 7 C-2.66 7.66 -3.32 8.32 -4 9 C-4 10.32 -4 11.64 -4 13 C-4.66 13 -5.32 13 -6 13 C-6.33 13.66 -6.66 14.32 -7 15 C-11 15 -11 15 -13 14 C-8.71 9.38 -4.42 4.76 0 0 Z " fill="#3B3589" transform="translate(251,281)"/>
<path d="M0 0 C3 2 3 2 3.75 3.8125 C5.4364363 6.76376353 7.73541757 8.10110179 10.5390625 9.94921875 C11.02117187 10.29597656 11.50328125 10.64273437 12 11 C12 11.33 12 11.66 12 12 C-2.52 12 -17.04 12 -32 12 C-32 11.67 -32 11.34 -32 11 C-20.78 11 -9.56 11 2 11 C1.34 8.03 0.68 5.06 0 2 C0 1.34 0 0.68 0 0 Z " fill="#287AB4" transform="translate(328,366)"/>
<path d="M0 0 C0 0.66 0 1.32 0 2 C0.58265625 2.2371875 1.1653125 2.474375 1.765625 2.71875 C4.47552837 4.2726806 5.86530802 6.01929431 7.75 8.5 C8.36359375 9.2940625 8.9771875 10.088125 9.609375 10.90625 C11 13 11 13 11 15 C11.66 15 12.32 15 13 15 C13 15.66 13 16.32 13 17 C13.66 17 14.32 17 15 17 C15 17.66 15 18.32 15 19 C14.01 19 13.02 19 12 19 C12 18.01 12 17.02 12 16 C11.38125 15.938125 10.7625 15.87625 10.125 15.8125 C9.42375 15.544375 8.7225 15.27625 8 15 C7.5359375 13.824375 7.5359375 13.824375 7.0625 12.625 C5.70240586 9.26476741 4.2733434 8.43707759 1 7 C0.01 7.33 -0.98 7.66 -2 8 C-2.99 7.34 -3.98 6.68 -5 6 C-7.31 7.98 -9.62 9.96 -12 12 C-10.34469139 8.68938278 -8.930495 6.49992967 -6.5625 3.75 C-5.96566406 3.04359375 -5.36882812 2.3371875 -4.75390625 1.609375 C-3 0 -3 0 0 0 Z " fill="#8F88BA" transform="translate(256,276)"/>
<path d="M0 0 C0.33 0 0.66 0 1 0 C1.33 8.91 1.66 17.82 2 27 C2.66 27.33 3.32 27.66 4 28 C4.33 27.34 4.66 26.68 5 26 C5.99 26 6.98 26 8 26 C8.33 26.99 8.66 27.98 9 29 C8.01 29 7.02 29 6 29 C6.2475 29.5775 6.495 30.155 6.75 30.75 C7 33 7 33 5.25 35.25 C3 37 3 37 0 37 C0 24.79 0 12.58 0 0 Z " fill="#3C358C" transform="translate(158,262)"/>
<path d="M0 0 C0 3 0 3 -2 6 C-1.34 6.33 -0.68 6.66 0 7 C-2.64 8.98 -5.28 10.96 -8 13 C-7.731875 13.721875 -7.46375 14.44375 -7.1875 15.1875 C-7 18 -7 18 -9.4375 20.8125 C-10.283125 21.534375 -11.12875 22.25625 -12 23 C-12.66 22.67 -13.32 22.34 -14 22 C-14.12375 22.61875 -14.2475 23.2375 -14.375 23.875 C-15 26 -15 26 -17 28 C-14.76062888 17.23575019 -7.63943147 7.63943147 0 0 Z " fill="#7277B1" transform="translate(181,285)"/>
<path d="M0 0 C0.66 0.33 1.32 0.66 2 1 C1.67 1.66 1.34 2.32 1 3 C1.99 3.33 2.98 3.66 4 4 C2.7934375 4.8971875 2.7934375 4.8971875 1.5625 5.8125 C-1.22327984 7.80947276 -1.22327984 7.80947276 -2 11 C-2.66 11 -3.32 11 -4 11 C-4.12375 11.804375 -4.2475 12.60875 -4.375 13.4375 C-4.58125 14.283125 -4.7875 15.12875 -5 16 C-5.66 16.33 -6.32 16.66 -7 17 C-7 16.34 -7 15.68 -7 15 C-9.16874252 15.50603992 -10.99967627 15.99983813 -13 17 C-12 15 -11 13 -10 11 C-9.34 11 -8.68 11 -8 11 C-8 10.34 -8 9.68 -8 9 C-7.34 9 -6.68 9 -6 9 C-5.7525 8.443125 -5.505 7.88625 -5.25 7.3125 C-3.78393985 4.60028873 -1.97010529 2.36412635 0 0 Z " fill="#A85EAD" transform="translate(276,177)"/>
<path d="M0 0 C0.36585366 5.48780488 0.36585366 5.48780488 -1.25 7.75 C-3 9 -3 9 -4.9375 9.9375 C-7.17822918 10.94084668 -7.17822918 10.94084668 -9 13.1875 C-9.99 14.0846875 -9.99 14.0846875 -11 15 C-13.25 14.75 -13.25 14.75 -15 14 C-13.8836366 10.65090981 -13.39780758 10.36035616 -10.5625 8.5625 C-7.69167558 6.62133156 -6.34296507 5.24549893 -5 2 C-2 0 -2 0 0 0 Z " fill="#662B90" transform="translate(240,224)"/>
<path d="M0 0 C0.66 0.66 1.32 1.32 2 2 C1.79296875 4.79296875 1.79296875 4.79296875 1.1875 8.1875 C0.99542969 9.29480469 0.80335938 10.40210938 0.60546875 11.54296875 C0.40566406 12.68378906 0.20585937 13.82460938 0 15 C-0.76723521 19.72811343 -1.11893926 24.23866739 -1.09765625 29.02734375 C-1.09443359 30.31318359 -1.09121094 31.59902344 -1.08789062 32.92382812 C-1.07953802 34.26171945 -1.07107311 35.59961007 -1.0625 36.9375 C-1.05747659 38.30273274 -1.05291517 39.66796726 -1.04882812 41.03320312 C-1.03708851 44.35551457 -1.02066679 47.67773408 -1 51 C-1.66 51 -2.32 51 -3 51 C-3.07518327 45.98701105 -3.12907998 40.97436329 -3.16479492 35.9609375 C-3.17971208 34.26198598 -3.20005315 32.56307179 -3.22631836 30.86425781 C-3.38817411 20.11195812 -2.84939864 10.44458261 0 0 Z " fill="#43729A" transform="translate(160,327)"/>
<path d="M0 0 C0 3.59857954 -0.95830515 5.09451118 -3 8 C-3.66 8 -4.32 8 -5 8 C-5.0928125 8.8353125 -5.0928125 8.8353125 -5.1875 9.6875 C-6.52117079 13.48333226 -9.42340827 16.21170413 -13 18 C-13.45375 18.78375 -13.9075 19.5675 -14.375 20.375 C-16.00850157 23.01373331 -17.43296314 24.31814826 -20 26 C-20.66 25.67 -21.32 25.34 -22 25 C-21.62190186 24.56655273 -21.24380371 24.13310547 -20.85424805 23.68652344 C-19.13057872 21.70891479 -17.4090231 19.72947715 -15.6875 17.75 C-15.09259766 17.06808594 -14.49769531 16.38617188 -13.88476562 15.68359375 C-13.30791016 15.01972656 -12.73105469 14.35585937 -12.13671875 13.671875 C-11.34334106 12.76066895 -11.34334106 12.76066895 -10.53393555 11.83105469 C-8.93740686 9.97697519 -8.93740686 9.97697519 -7.42895508 7.77050781 C-6.9573999 7.18624023 -6.48584473 6.60197266 -6 6 C-5.34 6 -4.68 6 -4 6 C-3.566875 5.071875 -3.566875 5.071875 -3.125 4.125 C-2 2 -2 2 0 0 Z " fill="#AF90C1" transform="translate(248,209)"/>
<path d="M0 0 C0 0.66 0 1.32 0 2 C0.99 2 1.98 2 3 2 C3.33 3.32 3.66 4.64 4 6 C1.36 6 -1.28 6 -4 6 C-4 8.31 -4 10.62 -4 13 C-4.99 13.33 -5.98 13.66 -7 14 C-7 13.34 -7 12.68 -7 12 C-7.66 12 -8.32 12 -9 12 C-9 12.66 -9 13.32 -9 14 C-9.66 14 -10.32 14 -11 14 C-10.690625 13.401875 -10.38125 12.80375 -10.0625 12.1875 C-8.89790296 9.91043228 -8.89790296 9.91043228 -8 7 C-7.34 7 -6.68 7 -6 7 C-5.8453125 6.1028125 -5.8453125 6.1028125 -5.6875 5.1875 C-4.71993159 2.10887325 -3.39245825 0 0 0 Z " fill="#702A90" transform="translate(251,210)"/>
<path d="M0 0 C0.33 0 0.66 0 1 0 C1.33 6.27 1.66 12.54 2 19 C5.00259517 19.33218192 5.00259517 19.33218192 6.6875 17.5 C7.120625 17.005 7.55375 16.51 8 16 C6.31326082 20.49797113 4.18326108 24.72886302 2 29 C1.34 29 0.68 29 0 29 C0 19.43 0 9.86 0 0 Z " fill="#3B3872" transform="translate(157,279)"/>
<path d="M0 0 C0.66 0 1.32 0 2 0 C3.45659977 1.61382948 4.84048951 3.29363216 6.1875 5 C10.00870141 9.77959335 13.92936174 14.43198471 18 19 C17.67 19.66 17.34 20.32 17 21 C16.401875 20.525625 15.80375 20.05125 15.1875 19.5625 C12.99617076 17.83534256 12.99617076 17.83534256 10 17 C10 16.01 10 15.02 10 14 C9.34 13.67 8.68 13.34 8 13 C8 12.34 8 11.68 8 11 C7.01 10.67 6.02 10.34 5 10 C5 9.34 5 8.68 5 8 C4.34 8 3.68 8 3 8 C0.95830515 5.09451118 0 3.59857954 0 0 Z " fill="#88B2D2" transform="translate(314,346)"/>
<path d="M0 0 C0.99 0.33 1.98 0.66 3 1 C3 1.66 3 2.32 3 3 C3.66 3 4.32 3 5 3 C5.33 4.65 5.66 6.3 6 8 C5.01 8.495 5.01 8.495 4 9 C4 8.34 4 7.68 4 7 C-0.95 8.485 -0.95 8.485 -6 10 C-2 2 -2 2 0 0 Z " fill="#862397" transform="translate(266,191)"/>
<path d="M0 0 C0.5625 1.9375 0.5625 1.9375 1 4 C0.67 4.33 0.34 4.66 0 5 C-1.19449725 13.14519317 -1.28113521 21.47257068 -1.5625 29.6875 C-1.60568359 30.87794922 -1.64886719 32.06839844 -1.69335938 33.29492188 C-1.79823679 36.19653034 -1.90040196 39.09820635 -2 42 C-2.99 41.67 -3.98 41.34 -5 41 C-4.34 41 -3.68 41 -3 41 C-3.05124023 40.04222656 -3.10248047 39.08445312 -3.15527344 38.09765625 C-3.34123045 34.5127236 -3.4982522 30.9269863 -3.64697266 27.34033203 C-3.71504295 25.79407168 -3.79074979 24.24812648 -3.87451172 22.70263672 C-4.72222786 6.8820065 -4.72222786 6.8820065 0 0 Z " fill="#4076AC" transform="translate(200,336)"/>
<path d="M0 0 C2 1.375 2 1.375 4 3 C4 3.66 4 4.32 4 5 C4.66 5 5.32 5 6 5 C7.7265625 6.96875 7.7265625 6.96875 9.625 9.5 C10.25664062 10.3353125 10.88828125 11.170625 11.5390625 12.03125 C12.26222656 13.00578125 12.26222656 13.00578125 13 14 C12.67 14.66 12.34 15.32 12 16 C5.99063539 13.32917129 3.85471365 10.70942729 1 5 C0.34 4.34 -0.32 3.68 -1 3 C-0.67 2.01 -0.34 1.02 0 0 Z " fill="#7F97C1" transform="translate(295,323)"/>
<path d="M0 0 C0 3.46132304 -0.35176518 3.74508628 -2.625 6.13671875 C-3.16640625 6.71357422 -3.7078125 7.29042969 -4.265625 7.88476562 C-4.83796875 8.47966797 -5.4103125 9.07457031 -6 9.6875 C-6.57234375 10.29400391 -7.1446875 10.90050781 -7.734375 11.52539062 C-9.1496339 13.02320629 -10.57397277 14.5124329 -12 16 C-12.82638376 13.10765685 -13 11.11257569 -13 8 C-12.21625 7.938125 -11.4325 7.87625 -10.625 7.8125 C-9.75875 7.544375 -8.8925 7.27625 -8 7 C-6.62533375 4.52363988 -6.62533375 4.52363988 -6 2 C-5.01 2.33 -4.02 2.66 -3 3 C-2.01 2.01 -1.02 1.02 0 0 Z " fill="#726BAB" transform="translate(246,273)"/>
<path d="M0 0 C1.32 0.33 2.64 0.66 4 1 C4 1.99 4 2.98 4 4 C4.66 4 5.32 4 6 4 C5.67 3.01 5.34 2.02 5 1 C5.66 1 6.32 1 7 1 C7 1.66 7 2.32 7 3 C7.639375 3.28875 8.27875 3.5775 8.9375 3.875 C11 5 11 5 12 7 C11.0625 9.625 11.0625 9.625 10 12 C9.01 11.34 8.02 10.68 7 10 C7 9.34 7 8.68 7 8 C6.34 8 5.68 8 5 8 C2 4.53846154 2 4.53846154 2 2 C1.34 2 0.68 2 0 2 C0 1.34 0 0.68 0 0 Z " fill="#4E82BE" transform="translate(261,347)"/>
<path d="M0 0 C0.66 0.33 1.32 0.66 2 1 C2.309375 2.11375 2.61875 3.2275 2.9375 4.375 C3.98610851 7.95260552 4.49406568 8.60301934 7 11 C7.6875 13.6875 7.6875 13.6875 8 16 C7.34 15.67 6.68 15.34 6 15 C6 14.34 6 13.68 6 13 C5.34 13 4.68 13 4 13 C4 12.34 4 11.68 4 11 C3.34 11 2.68 11 2 11 C-0.25 8.3125 -0.25 8.3125 -2 5 C-1.25 2.125 -1.25 2.125 0 0 Z " fill="#878DB7" transform="translate(229,303)"/>
<path d="M0 0 C0.33 0 0.66 0 1 0 C1.02929977 3.35414799 1.0468989 6.70826253 1.0625 10.0625 C1.07087891 11.00544922 1.07925781 11.94839844 1.08789062 12.91992188 C1.10581103 18.0630768 0.89259611 22.93258427 0 28 C-0.66 27.67 -1.32 27.34 -2 27 C-2.24908976 17.76984056 -1.68944836 9.08078495 0 0 Z " fill="#9B328D" transform="translate(340,139)"/>
<path d="M0 0 C1.67299959 0.65061095 3.33859237 1.32033324 5 2 C5.680625 2.268125 6.36125 2.53625 7.0625 2.8125 C9.7350161 4.45049374 11.24266547 6.42676015 13 9 C13 9.99 13 10.98 13 12 C8.12314139 10.64531705 6.51407619 8.28324091 4 4 C2.68 4.33 1.36 4.66 0 5 C0 3.33333333 0 1.66666667 0 0 Z " fill="#5491C0" transform="translate(325,363)"/>
<path d="M0 0 C0.53625 0.28875 1.0725 0.5775 1.625 0.875 C4.35280484 2.16711808 7.12612718 3.08558592 10 4 C10 3.01 10 2.02 10 1 C10.66 1 11.32 1 12 1 C12 3.97 12 6.94 12 10 C10.68 9.67 9.36 9.34 8 9 C8 8.34 8 7.68 8 7 C7.4225 6.773125 6.845 6.54625 6.25 6.3125 C3.4336339 4.66961977 1.91922886 2.60466773 0 0 Z " fill="#B98FBB" transform="translate(326,191)"/>
<path d="M0 0 C0.66 0.66 1.32 1.32 2 2 C1.50628906 2.40992188 1.01257813 2.81984375 0.50390625 3.2421875 C-0.13675781 3.78101563 -0.77742188 4.31984375 -1.4375 4.875 C-2.07558594 5.40867188 -2.71367187 5.94234375 -3.37109375 6.4921875 C-5.10805004 7.9222757 -5.10805004 7.9222757 -6 10 C-6.66 10 -7.32 10 -8 10 C-8.28875 10.639375 -8.5775 11.27875 -8.875 11.9375 C-10 14 -10 14 -12 15 C-11.649375 14.21625 -11.29875 13.4325 -10.9375 12.625 C-10.628125 11.75875 -10.31875 10.8925 -10 10 C-10.33 9.34 -10.66 8.68 -11 8 C-10 6 -10 6 -7 5 C-6.67 4.34 -6.34 3.68 -6 3 C-4.34795544 2.29788106 -2.68076231 1.63028587 -1 1 C-0.67 0.67 -0.34 0.34 0 0 Z " fill="#B780BE" transform="translate(322,187)"/>
<path d="M0 0 C4.13621084 3.3810038 7.81316569 6.66590534 11 11 C10.67 11.66 10.34 12.32 10 13 C9.01 12.34 8.02 11.68 7 11 C6.34 11 5.68 11 5 11 C5 10.34 5 9.68 5 9 C4.34 9 3.68 9 3 9 C2.67 7.35 2.34 5.7 2 4 C1.34 4.66 0.68 5.32 0 6 C-0.66 5.67 -1.32 5.34 -2 5 C-1.34 3.35 -0.68 1.7 0 0 Z " fill="#7882BA" transform="translate(280,306)"/>
<path d="M0 0 C0.66 0 1.32 0 2 0 C1.38302522 4.01033607 -0.76692602 6.68422349 -3 10 C-3.71573527 11.64619113 -4.4025696 13.30728055 -5 15 C-6.32 15 -7.64 15 -9 15 C-9.99 15.495 -9.99 15.495 -11 16 C-8.98650475 11.24284089 -5.39232868 7.95651345 -1.8984375 4.2421875 C0.21539354 2.23526121 0.21539354 2.23526121 0 0 Z " fill="#C587C3" transform="translate(289,161)"/>
<path d="M0 0 C3 2 3 2 3.9375 3.9375 C5.21122973 6.41003419 6.786076 7.37645574 9 9 C9 9.66 9 10.32 9 11 C6.69 11 4.38 11 2 11 C1.664061 9.5422647 1.33133376 8.08378894 1 6.625 C0.814375 5.81289063 0.62875 5.00078125 0.4375 4.1640625 C0 2 0 2 0 0 Z " fill="#197EC8" transform="translate(328,366)"/>
<path d="M0 0 C0.66 0.33 1.32 0.66 2 1 C2.40729228 3.32156597 2.74438677 5.6568787 3 8 C5.64 8.33 8.28 8.66 11 9 C10.67 9.66 10.34 10.32 10 11 C9.34 11 8.68 11 8 11 C8 11.99 8 12.98 8 14 C3.69885407 11.84942703 -0.31376096 8.7761481 -2.0625 4.25 C-2 2 -2 2 0 0 Z " fill="#2C4D98" transform="translate(245,320)"/>
<path d="M0 0 C0 2.31 0 4.62 0 7 C-1.32 7 -2.64 7 -4 7 C-4.66 6.34 -5.32 5.68 -6 5 C-7.98 5.99 -7.98 5.99 -10 7 C-9.09827532 5.82174642 -8.17798498 4.65768423 -7.25 3.5 C-6.73953125 2.8503125 -6.2290625 2.200625 -5.703125 1.53125 C-4 0 -4 0 0 0 Z " fill="#453184" transform="translate(207,262)"/>
<path d="M0 0 C4.75 0.875 4.75 0.875 7 2 C7.4375 4.1875 7.4375 4.1875 7 7 C4.86004673 8.98441782 2.49824035 10.5023304 0 12 C0.66666667 8.66666667 1.33333333 5.33333333 2 2 C1.34 2 0.68 2 0 2 C0 1.34 0 0.68 0 0 Z " fill="#52348B" transform="translate(256,249)"/>
<path d="M0 0 C-1.30546772 2.61093545 -2.27990215 2.68996636 -5 3.625 C-9.8157925 5.1632708 -13.97178215 5.23943895 -19 5 C-16.4156782 2.4156782 -14.10624423 1.89598837 -10.625 0.8125 C-9.48289062 0.44769531 -8.34078125 0.08289063 -7.1640625 -0.29296875 C-4.18525347 -0.95860385 -2.79128097 -1.07938697 0 0 Z " fill="#CE82C0" transform="translate(311,140)"/>
<path d="M0 0 C0.598125 0.226875 1.19625 0.45375 1.8125 0.6875 C0.50188409 4.92179756 -1.13106259 8.76157404 -3.1875 12.6875 C-3.5175 12.6875 -3.8475 12.6875 -4.1875 12.6875 C-4.4368357 11.08634424 -4.66128648 9.48129841 -4.875 7.875 C-5.00261719 6.98167969 -5.13023437 6.08835937 -5.26171875 5.16796875 C-5.1875 2.6875 -5.1875 2.6875 -3.84375 0.84375 C-2.1875 -0.3125 -2.1875 -0.3125 0 0 Z " fill="#7283B9" transform="translate(207.1875,316.3125)"/>
<path d="M0 0 C0 3 0 3 -2 6 C-1.34 6.33 -0.68 6.66 0 7 C-0.56589844 7.39832031 -1.13179687 7.79664063 -1.71484375 8.20703125 C-2.44832031 8.73683594 -3.18179688 9.26664062 -3.9375 9.8125 C-4.66839844 10.33457031 -5.39929688 10.85664063 -6.15234375 11.39453125 C-8.26883226 12.95867127 -8.26883226 12.95867127 -9 16 C-9.66 16 -10.32 16 -11 16 C-9.6020749 11.93064734 -7.66821145 9.06055399 -4.9375 5.75 C-4.22464844 4.87859375 -3.51179687 4.0071875 -2.77734375 3.109375 C-1.88187356 2.04661917 -0.98267919 0.98267919 0 0 Z " fill="#9796C2" transform="translate(181,285)"/>
<path d="M0 0 C0.99 0.33 1.98 0.66 3 1 C2.01 2.485 2.01 2.485 1 4 C1 5.32 1 6.64 1 8 C-1.33333333 8 -3.66666667 8 -6 8 C-5.66354211 4.85972637 -4.94763914 3.94901705 -2.625 1.6875 C-1.75875 1.130625 -0.8925 0.57375 0 0 Z " fill="#3D3290" transform="translate(189,279)"/>
<path d="M0 0 C0 0.66 0 1.32 0 2 C-4.75 3.125 -4.75 3.125 -7 2 C-7 2.66 -7 3.32 -7 4 C-8.32 3.67 -9.64 3.34 -11 3 C-11 3.99 -11 4.98 -11 6 C-12.98 6 -14.96 6 -17 6 C-17.33 5.34 -17.66 4.68 -18 4 C-15.56592995 3.13475247 -13.12856816 2.28257135 -10.6875 1.4375 C-9.99720703 1.19064453 -9.30691406 0.94378906 -8.59570312 0.68945312 C-3.33984375 -1.11328125 -3.33984375 -1.11328125 0 0 Z " fill="#D690CB" transform="translate(329,134)"/>
<path d="M0 0 C0.625 2.5625 0.625 2.5625 1 5 C-0.32 5.99 -1.64 6.98 -3 8 C-3 7.34 -3 6.68 -3 6 C-4.32 6.33 -5.64 6.66 -7 7 C-6.75 4.125 -6.75 4.125 -6 1 C-2.77922078 -1.38961039 -2.77922078 -1.38961039 0 0 Z " fill="#81268F" transform="translate(312,193)"/>
<path d="M0 0 C2.97 0 5.94 0 9 0 C9.25 2.3125 9.25 2.3125 9 5 C7.1875 6.875 7.1875 6.875 5 8 C4.01 7.67 3.02 7.34 2 7 C2.66 5.68 3.32 4.36 4 3 C2.68 2.67 1.36 2.34 0 2 C0 1.34 0 0.68 0 0 Z " fill="#4C358F" transform="translate(177,265)"/>
<path d="M0 0 C0.66 0.66 1.32 1.32 2 2 C1.79296875 4.79296875 1.79296875 4.79296875 1.1875 8.1875 C0.98769531 9.35023438 0.78789062 10.51296875 0.58203125 11.7109375 C0.38996094 12.79632813 0.19789063 13.88171875 0 15 C-0.21614909 16.43634557 -0.42663189 17.873591 -0.625 19.3125 C-0.74875 20.199375 -0.8725 21.08625 -1 22 C-1.33 22 -1.66 22 -2 22 C-2.19355213 14.34393782 -2.3479743 7.33741969 0 0 Z " fill="#345999" transform="translate(160,327)"/>
<path d="M0 0 C0 4.13781054 -1.71509607 5.20919996 -4.5 8.1875 C-5.3353125 9.08855469 -6.170625 9.98960937 -7.03125 10.91796875 C-7.6809375 11.60503906 -8.330625 12.29210937 -9 13 C-9 10 -9 10 -8 7 C-8 6.01 -8 5.02 -8 4 C-6.865625 3.525625 -5.73125 3.05125 -4.5625 2.5625 C-1.24259834 1.36377917 -1.24259834 1.36377917 0 0 Z " fill="#9C91C1" transform="translate(184,270)"/>
<path d="M0 0 C1.485 0.99 1.485 0.99 3 2 C5.05396726 1.59070014 5.05396726 1.59070014 7 1 C7.66 1.33 8.32 1.66 9 2 C8.67 2.99 8.34 3.98 8 5 C8.87483915 7.16715557 8.87483915 7.16715557 10 9 C9.401875 8.690625 8.80375 8.38125 8.1875 8.0625 C5.91043228 6.89790296 5.91043228 6.89790296 3 6 C0 2.55555556 0 2.55555556 0 0 Z " fill="#5496C6" transform="translate(278,367)"/>
<path d="M0 0 C0.66 0 1.32 0 2 0 C2.2846391 4.9337444 2.14832529 7.22200966 -1 11 C-1.71433121 13.64934822 -1.71433121 13.64934822 -2 16 C-2.33 16 -2.66 16 -3 16 C-3.37851209 10.06997733 -2.10575375 5.52760359 0 0 Z " fill="#90A1C6" transform="translate(161,319)"/>
<path d="M0 0 C2.3828125 0.0234375 2.3828125 0.0234375 5.125 0.375 C6.03507812 0.48585937 6.94515625 0.59671875 7.8828125 0.7109375 C8.93082031 0.85402344 8.93082031 0.85402344 10 1 C9.2578125 2.953125 9.2578125 2.953125 8 5 C5.32209537 5.83886169 2.8262059 5.81766414 0 6 C0 5.01 0 4.02 0 3 C1.65 2.67 3.3 2.34 5 2 C2.69 2 0.38 2 -2 2 C-1.34 1.34 -0.68 0.68 0 0 Z " fill="#BF49AC" transform="translate(287,145)"/>
<path d="M0 0 C0.66 0 1.32 0 2 0 C0.47038014 3.44164469 -1.62729066 6.09151758 -4 9 C-4.33 9.66 -4.66 10.32 -5 11 C-5.99 11 -6.98 11 -8 11 C-7.690625 10.236875 -7.38125 9.47375 -7.0625 8.6875 C-6.32106407 6.81210323 -5.63771783 4.91315348 -5 3 C-4.01 3 -3.02 3 -2 3 C-1.34 2.01 -0.68 1.02 0 0 Z " fill="#334192" transform="translate(172,304)"/>
<path d="M0 0 C1.32 0.33 2.64 0.66 4 1 C4 4 4 4 2.3125 5.75 C0 7 0 7 -2.75 6.6875 C-3.4925 6.460625 -4.235 6.23375 -5 6 C-5 5.34 -5 4.68 -5 4 C-4.360625 3.71125 -3.72125 3.4225 -3.0625 3.125 C-0.84793921 2.17176549 -0.84793921 2.17176549 0 0 Z " fill="#3F3A92" transform="translate(229,286)"/>
<path d="M0 0 C0.33 0 0.66 0 1 0 C1 1.98 1 3.96 1 6 C0.01 6.33 -0.98 6.66 -2 7 C-2 7.66 -2 8.32 -2 9 C-2.66 9 -3.32 9 -4 9 C-4 8.01 -4 7.02 -4 6 C-3.01 6 -2.02 6 -1 6 C-1.99 5.01 -2.98 4.02 -4 3 C-4.99 3.495 -4.99 3.495 -6 4 C-6 3.34 -6 2.68 -6 2 C-6.66 1.67 -7.32 1.34 -8 1 C-6.865625 1.020625 -5.73125 1.04125 -4.5625 1.0625 C-1.18424326 1.41577477 -1.18424326 1.41577477 0 0 Z " fill="#6F56A4" transform="translate(193,256)"/>
<path d="M0 0 C1.32 0.33 2.64 0.66 4 1 C2.34832443 4.5786304 0.21713508 7.74820188 -2 11 C-2.66 9.68 -3.32 8.36 -4 7 C-3.34 6.67 -2.68 6.34 -2 6 C-1.27306096 4.02111039 -0.60183749 2.02045442 0 0 Z " fill="#7A75AC" transform="translate(168,284)"/>
<path d="M0 0 C0.66 0 1.32 0 2 0 C0.66666667 2.66666667 -0.66666667 5.33333333 -2 8 C-4.475 7.01 -4.475 7.01 -7 6 C-7 5.34 -7 4.68 -7 4 C-6.34 4 -5.68 4 -5 4 C-4.67 3.01 -4.34 2.02 -4 1 C-3.67 1.66 -3.34 2.32 -3 3 C-2.01 2.67 -1.02 2.34 0 2 C0 1.34 0 0.68 0 0 Z " fill="#514294" transform="translate(175,277)"/>
<path d="M0 0 C-0.61277612 2.96175123 -1.25372522 4.38058783 -3 7 C-4.64333504 8.03789581 -6.31243867 9.03567924 -8 10 C-9.34631825 10.98244845 -10.68441297 11.97676564 -12 13 C-10.49017269 9.57143381 -8.48286031 7.04321784 -6 4.25 C-5.29875 3.45078125 -4.5975 2.6515625 -3.875 1.828125 C-2 0 -2 0 0 0 Z " fill="#C59ECB" transform="translate(263,194)"/>
<path d="M0 0 C0.86625 0.3403125 0.86625 0.3403125 1.75 0.6875 C0.76 0.6875 -0.23 0.6875 -1.25 0.6875 C-1.25 1.3475 -1.25 2.0075 -1.25 2.6875 C-0.26 3.0175 0.73 3.3475 1.75 3.6875 C2.4375 5.75 2.4375 5.75 2.75 7.6875 C0.58125748 7.18146008 -1.24967627 6.68766187 -3.25 5.6875 C-3.25 5.0275 -3.25 4.3675 -3.25 3.6875 C-4.24 3.3575 -5.23 3.0275 -6.25 2.6875 C-2.80384615 -0.38942308 -2.80384615 -0.38942308 0 0 Z " fill="#A71C96" transform="translate(289.25,151.3125)"/>
<path d="M0 0 C1.875 0.25 1.875 0.25 4 1 C5.25 3.0625 5.25 3.0625 6 5 C4.02 5.99 2.04 6.98 0 8 C-1.125 2.25 -1.125 2.25 0 0 Z " fill="#353F92" transform="translate(274,303)"/>
<path d="M0 0 C3.73884332 2.65654657 5.64978174 4.58110387 7 9 C7.66 9 8.32 9 9 9 C9 9.66 9 10.32 9 11 C9.66 11 10.32 11 11 11 C11 11.66 11 12.32 11 13 C10.01 13 9.02 13 8 13 C8 12.01 8 11.02 8 10 C7.38125 9.938125 6.7625 9.87625 6.125 9.8125 C4 9 4 9 2.875 6.6875 C2.58625 5.800625 2.2975 4.91375 2 4 C1.34786461 2.65949948 0.68620031 1.32338632 0 0 Z " fill="#9997BF" transform="translate(260,282)"/>
<path d="M0 0 C0.33 0.66 0.66 1.32 1 2 C1.66 2 2.32 2 3 2 C3.75 4.1875 3.75 4.1875 4 7 C2.0625 9.8125 2.0625 9.8125 0 12 C-0.19477739 10.37585622 -0.38059458 8.75063577 -0.5625 7.125 C-0.66691406 6.22007812 -0.77132812 5.31515625 -0.87890625 4.3828125 C-1 2 -1 2 0 0 Z " fill="#5366AA" transform="translate(163,313)"/>
<path d="M0 0 C0.66 0 1.32 0 2 0 C2.71484375 1.734375 2.71484375 1.734375 3 4 C1.56640625 6.140625 1.56640625 6.140625 -0.4375 8.25 C-1.09621094 8.95640625 -1.75492187 9.6628125 -2.43359375 10.390625 C-2.95050781 10.92171875 -3.46742188 11.4528125 -4 12 C-4 9.35220307 -3.82804069 7.48412207 -3 5 C-2.34 4.67 -1.68 4.34 -1 4 C-0.34786708 1.97536745 -0.34786708 1.97536745 0 0 Z " fill="#AB75B5" transform="translate(307,199)"/>
<path d="M0 0 C0.99 0.33 1.98 0.66 3 1 C3 1.66 3 2.32 3 3 C2.01 3.495 2.01 3.495 1 4 C0.67 4.66 0.34 5.32 0 6 C-1 8 -1 8 -3 9 C-3.66 8.34 -4.32 7.68 -5 7 C-3.47793991 4.37098712 -2.15634036 2.15634036 0 0 Z " fill="#6B6FAC" transform="translate(235,297)"/>
<path d="M0 0 C0.66 1.32 1.32 2.64 2 4 C1.01 5.32 0.02 6.64 -1 8 C-1.99 7.67 -2.98 7.34 -4 7 C-3.01 6.34 -2.02 5.68 -1 5 C-1 3.68 -1 2.36 -1 1 C-0.67 0.67 -0.34 0.34 0 0 Z M-7 9 C-6.34 9.33 -5.68 9.66 -5 10 C-5 10.66 -5 11.32 -5 12 C-6.32 12.33 -7.64 12.66 -9 13 C-8.34 11.68 -7.68 10.36 -7 9 Z " fill="#383688" transform="translate(181,287)"/>
<path d="M0 0 C1 2 1 2 0.9375 3.875 C-0.49584875 7.12392382 -3.01674998 8.21004999 -6 10 C-6.99 10.66 -7.98 11.32 -9 12 C-7.79618552 9.50638429 -6.54571278 7.31856917 -5 5 C-4.34 5 -3.68 5 -3 5 C-2.690625 4.360625 -2.38125 3.72125 -2.0625 3.0625 C-1 1 -1 1 0 0 Z " fill="#B5A6C9" transform="translate(216,245)"/>
<path d="M0 0 C0.99 0 1.98 0 3 0 C3.375 2.1875 3.375 2.1875 3 5 C1.16038352 6.99022836 -0.79186148 8.38989899 -3 10 C-3 9.01 -3 8.02 -3 7 C-3.99 6.67 -4.98 6.34 -6 6 C-4.02 6 -2.04 6 0 6 C0 4.02 0 2.04 0 0 Z " fill="#662D88" transform="translate(281,226)"/>
<path d="M0 0 C0.66 0 1.32 0 2 0 C4.6875 2.75 4.6875 2.75 7 6 C6.8125 8.375 6.8125 8.375 6 10 C5.67 9.34 5.34 8.68 5 8 C4.34 8 3.68 8 3 8 C0.95830515 5.09451118 0 3.59857954 0 0 Z " fill="#7A9FC7" transform="translate(314,346)"/>
<path d="M0 0 C-1.65 0.33 -3.3 0.66 -5 1 C-3.60240095 4.54518884 -3.60240095 4.54518884 -2 8 C-4.49361571 6.79618552 -6.68143083 5.54571278 -9 4 C-9 3.01 -9 2.02 -9 1 C-5.57367167 -0.61798838 -3.61944899 -1.34053666 0 0 Z " fill="#DFB6D9" transform="translate(285,148)"/>
<path d="M0 0 C0 0.99 0 1.98 0 3 C-1.175625 2.9690625 -1.175625 2.9690625 -2.375 2.9375 C-4.98114961 2.81315937 -4.98114961 2.81315937 -7 4 C-8.66619446 4.0396713 -10.33391013 4.04384447 -12 4 C-12 3.34 -12 2.68 -12 2 C-7.26221957 -0.36889021 -5.36029082 -1.04875255 0 0 Z " fill="#B21F96" transform="translate(317,140)"/>
<path d="M0 0 C0.99 2.31 1.98 4.62 3 7 C0.69 6.34 -1.62 5.68 -4 5 C-4 3.68 -4 2.36 -4 1 C-2 0 -2 0 0 0 Z " fill="#566DA9" transform="translate(293,319)"/>
<path d="M0 0 C0 3.52032428 -0.70351351 4.4385343 -3 7 C-3.66 7 -4.32 7 -5 7 C-5 7.66 -5 8.32 -5 9 C-5.66 9 -6.32 9 -7 9 C-6.25 4.25 -6.25 4.25 -4 2 C-2.68252676 1.30251417 -1.35085807 0.63040043 0 0 Z " fill="#9B9CC5" transform="translate(231,290)"/>
<path d="M0 0 C0.66 0.33 1.32 0.66 2 1 C1.67 1.66 1.34 2.32 1 3 C1.99 3.33 2.98 3.66 4 4 C0.66666667 5.66666667 -2.66666667 7.33333333 -6 9 C-4.79618552 6.50638429 -3.54571278 4.31856917 -2 2 C-1.34 2 -0.68 2 0 2 C0 1.34 0 0.68 0 0 Z " fill="#9991C2" transform="translate(190,274)"/>
<path d="M0 0 C0 4.38968456 -2.12805101 5.76905739 -5 9 C-5.66 8.67 -6.32 8.34 -7 8 C-7 6.02 -7 4.04 -7 2 C-6.21625 2.04125 -5.4325 2.0825 -4.625 2.125 C-1.83883881 2.28728734 -1.83883881 2.28728734 0 0 Z " fill="#AC8ABE" transform="translate(290,223)"/>
<path d="M0 0 C0.33 0.66 0.66 1.32 1 2 C0.0625 4.125 0.0625 4.125 -1 6 C-0.34 6.66 0.32 7.32 1 8 C-1.31 8.66 -3.62 9.32 -6 10 C-2.28571429 2.28571429 -2.28571429 2.28571429 0 0 Z " fill="#80278E" transform="translate(266,191)"/>
<path d="M0 0 C1.66666667 0 3.33333333 0 5 0 C4.67 1.32 4.34 2.64 4 4 C3.01 4 2.02 4 1 4 C1 4.66 1 5.32 1 6 C0.01 5.67 -0.98 5.34 -2 5 C-1.34 3.35 -0.68 1.7 0 0 Z " fill="#393C92" transform="translate(219,296)"/>
<path d="M0 0 C4 0 4 0 6 1 C5.67 2.65 5.34 4.3 5 6 C3.68 5.67 2.36 5.34 1 5 C1 4.34 1 3.68 1 3 C0.34 3 -0.32 3 -1 3 C-0.67 2.01 -0.34 1.02 0 0 Z " fill="#873D9C" transform="translate(250,207)"/>
<path d="M0 0 C0.33 0.66 0.66 1.32 1 2 C1.99 2.33 2.98 2.66 4 3 C4.6875 5.0625 4.6875 5.0625 5 7 C3.68 7 2.36 7 1 7 C0.67 6.01 0.34 5.02 0 4 C-0.99 3.34 -1.98 2.68 -3 2 C-2.01 1.34 -1.02 0.68 0 0 Z " fill="#94469A" transform="translate(323,184)"/>
<path d="M0 0 C1.65 0 3.3 0 5 0 C6.42944945 2.35438733 7.08661261 3.48032433 6.625 6.25 C6.41875 6.8275 6.2125 7.405 6 8 C4.5 6.625 4.5 6.625 3 5 C3 4.34 3 3.68 3 3 C2.34 3 1.68 3 1 3 C0.67 2.01 0.34 1.02 0 0 Z " fill="#75A1C7" transform="translate(271,359)"/>
<path d="M0 0 C0 3 0 3 -1.53125 4.60546875 C-2.1809375 5.12753906 -2.830625 5.64960938 -3.5 6.1875 C-4.1496875 6.71730469 -4.799375 7.24710937 -5.46875 7.79296875 C-5.9740625 8.19128906 -6.479375 8.58960938 -7 9 C-6.67 6.69 -6.34 4.38 -6 2 C-5.01 2.33 -4.02 2.66 -3 3 C-2.01 2.01 -1.02 1.02 0 0 Z " fill="#958ABE" transform="translate(246,273)"/>
<path d="M0 0 C2.52845528 1.26422764 2.76422764 2.52845528 4 5 C4.66 5.33 5.32 5.66 6 6 C7.04808041 7.97522846 8.0520411 9.97481509 9 12 C4.7835599 10.43835552 2.58130177 7.58514135 0 4 C0 2.68 0 1.36 0 0 Z " fill="#BB6DAF" transform="translate(280,149)"/>
<path d="M0 0 C2.84381248 1.4640128 5.51980792 2.97075193 8 5 C9 8.3125 9 8.3125 9 11 C8.01 10.34 7.02 9.68 6 9 C6 8.34 6 7.68 6 7 C5.34 7 4.68 7 4 7 C0 2.52941176 0 2.52941176 0 0 Z " fill="#ACBCD8" transform="translate(244,327)"/>
<path d="M0 0 C0.33 0.99 0.66 1.98 1 3 C1.66 3.33 2.32 3.66 3 4 C0.35541621 5.32229189 -1.67761301 5.09677194 -4.625 5.0625 C-5.62789062 5.05347656 -6.63078125 5.04445313 -7.6640625 5.03515625 C-8.43492187 5.02355469 -9.20578125 5.01195312 -10 5 C-10 4.67 -10 4.34 -10 4 C-7.36 3.67 -4.72 3.34 -2 3 C-2 2.34 -2 1.68 -2 1 C-1.34 0.67 -0.68 0.34 0 0 Z " fill="#1E7BBF" transform="translate(194,373)"/>
<path d="M0 0 C0 3 0 3 -1.53125 4.60546875 C-2.1809375 5.12753906 -2.830625 5.64960938 -3.5 6.1875 C-4.1496875 6.71730469 -4.799375 7.24710937 -5.46875 7.79296875 C-5.9740625 8.19128906 -6.479375 8.58960938 -7 9 C-6.19095897 4.20719998 -3.74015409 2.86479887 0 0 Z " fill="#4D3286" transform="translate(214,251)"/>
<path d="M0 0 C0.99 0 1.98 0 3 0 C2.6875 2.375 2.6875 2.375 2 5 C1.01 5.66 0.02 6.32 -1 7 C-1.625 5.1875 -1.625 5.1875 -2 3 C-1.34 2.01 -0.68 1.02 0 0 Z " fill="#5E3088" transform="translate(274,235)"/>
<path d="M0 0 C0.99 0 1.98 0 3 0 C3 0.66 3 1.32 3 2 C3.99 1.67 4.98 1.34 6 1 C6.99 2.32 7.98 3.64 9 5 C8.01 5 7.02 5 6 5 C6 4.34 6 3.68 6 3 C3.36 3 0.72 3 -2 3 C-1.34 2.67 -0.68 2.34 0 2 C0 1.34 0 0.68 0 0 Z " fill="#324793" transform="translate(282,315)"/>
<path d="M0 0 C0.33 0.66 0.66 1.32 1 2 C0.22265625 3.7265625 0.22265625 3.7265625 -0.9375 5.625 C-1.618125 6.73875 -2.29875 7.8525 -3 9 C-3.33 8.01 -3.66 7.02 -4 6 C-4.66 6 -5.32 6 -6 6 C-5.67 5.01 -5.34 4.02 -5 3 C-4.01 3 -3.02 3 -2 3 C-1.34 2.01 -0.68 1.02 0 0 Z " fill="#9796C2" transform="translate(164,295)"/>
<path d="M0 0 C0.66 0 1.32 0 2 0 C2.12375 0.78375 2.2475 1.5675 2.375 2.375 C2.79117993 5.14057822 2.79117993 5.14057822 5 7 C2 7 2 7 -0.1875 5 C-0.785625 4.34 -1.38375 3.68 -2 3 C-1 1 -1 1 0 0 Z " fill="#7F9CC7" transform="translate(257,339)"/>
<path d="M0 0 C0 3.90838866 -1.50567876 5.11594107 -4 8 C-4.66 7.67 -5.32 7.34 -6 7 C-5.8125 4.625 -5.8125 4.625 -5 2 C-2.4375 0.6875 -2.4375 0.6875 0 0 Z " fill="#9FA6CD" transform="translate(217,306)"/>
<path d="M0 0 C0.33 0.66 0.66 1.32 1 2 C0.34 2 -0.32 2 -1 2 C-1.66 3.32 -2.32 4.64 -3 6 C-3.99 6 -4.98 6 -6 6 C-6 5.01 -6 4.02 -6 3 C-5.01 3 -4.02 3 -3 3 C-3 2.34 -3 1.68 -3 1 C-2.01 0.67 -1.02 0.34 0 0 Z " fill="#7F83B1" transform="translate(223,299)"/>
<path d="M0 0 C0.99 0.33 1.98 0.66 3 1 C2.67 3.31 2.34 5.62 2 8 C1.34 8 0.68 8 0 8 C0 5.36 0 2.72 0 0 Z " fill="#5E5C8C" transform="translate(157,300)"/>
<path d="M0 0 C0.33 1.32 0.66 2.64 1 4 C-0.65 5.32 -2.3 6.64 -4 8 C-4 6.35 -4 4.7 -4 3 C-3.01 3 -2.02 3 -1 3 C-0.67 2.01 -0.34 1.02 0 0 Z " fill="#413388" transform="translate(246,269)"/>
<path d="M0 0 C0.66 0.66 1.32 1.32 2 2 C1.67 2.33 1.34 2.66 1 3 C1 3.99 1 4.98 1 6 C-0.65 5.67 -2.3 5.34 -4 5 C-3 2 -3 2 0 0 Z " fill="#5C2E88" transform="translate(229,233)"/>
<path d="M0 0 C-0.33 0.66 -0.66 1.32 -1 2 C-1.99 2 -2.98 2 -4 2 C-4.33 2.66 -4.66 3.32 -5 4 C-6.65 3.67 -8.3 3.34 -10 3 C-10 2.34 -10 1.68 -10 1 C-8.68 1.33 -7.36 1.66 -6 2 C-6 1.34 -6 0.68 -6 0 C-3 -1 -3 -1 0 0 Z " fill="#A92190" transform="translate(328,136)"/>
<path d="M0 0 C3.32901247 2.21934164 3.75023244 3.34683329 5 7 C4.01 7.495 4.01 7.495 3 8 C1.5 6.8125 1.5 6.8125 0 5 C-0.1875 2.3125 -0.1875 2.3125 0 0 Z " fill="#1C78BF" transform="translate(328,366)"/>
<path d="M0 0 C1.32 0.33 2.64 0.66 4 1 C4.33 2.98 4.66 4.96 5 7 C4.01 6.34 3.02 5.68 2 5 C2 4.34 2 3.68 2 3 C1.34 3 0.68 3 0 3 C0 2.01 0 1.02 0 0 Z " fill="#759BC2" transform="translate(266,352)"/>
<path d="M0 0 C0.66 0 1.32 0 2 0 C2 2.31 2 4.62 2 7 C0.68 7 -0.64 7 -2 7 C-1.67 6.01 -1.34 5.02 -1 4 C-0.34 4 0.32 4 1 4 C0.67 2.68 0.34 1.36 0 0 Z " fill="#462F93" transform="translate(205,262)"/>
<path d="M0 0 C0.66 0.99 1.32 1.98 2 3 C0.6875 4.5 0.6875 4.5 -1 6 C-1.99 6 -2.98 6 -4 6 C-2.84826645 3.53199953 -1.95216435 1.95216435 0 0 Z " fill="#892A89" transform="translate(281,174)"/>
<path d="M0 0 C1.32 0 2.64 0 4 0 C3.67 1.32 3.34 2.64 3 4 C2.01 3.67 1.02 3.34 0 3 C-0.66 3.99 -1.32 4.98 -2 6 C-1.125 1.125 -1.125 1.125 0 0 Z " fill="#334695" transform="translate(205,314)"/>
<path d="M0 0 C0 0.99 0 1.98 0 3 C-1.98 3 -3.96 3 -6 3 C-6.33 2.34 -6.66 1.68 -7 1 C-4 0 -4 0 0 0 Z " fill="#C86DB5" transform="translate(318,137)"/>
</svg>
